# xmcd
#
# Track frame offsets:
#	150
#	17304
#	31449
#	41476
#	58870
#	74663
#	84754
#	100944
#	112660
#	124254
#	138881
#	151897
#	165090
#	179551
#	191519
#
# Disc length: 2720 seconds
#
# Revision: 1
# Processed by: cddbd v1.5.2PL0 Copyright (c) Steve Scherf et al.
# Submitted via: audiograbber 1.83.01
#
DISCID=b60a9e0f
DTITLE=easy Contry - Disc Three
DYEAR=2006
DGENRE=Country
TTITLE0=Nanci Griffit - Banks Of The Pontchartrain
TTITLE1=Rita Remington - Angel Of The Morning
TTITLE2=Billie Joe Spears - My Arms Stay Open Late
TTITLE3=Dr. Hook - Sylvia´s Mother
TTITLE4=Shelby Lynne - Lookin´ Up
TTITLE5=Kitty Wells - I Can`t Stop Loving You
TTITLE6=Josh Rouse - Invisible
TTITLE7=Johnny Cash - So Doggone Lonesome
TTITLE8=Patsy Cline - Walkin` After Midnight
TTITLE9=Lynn Anderson - Faithless Love
TTITLE10=Roy Acuff - Great Speckled Bird
TTITLE11=Sons Of The Pioneers - Cool Water
TTITLE12=Red Foley - Peace In The Valley
TTITLE13=Skeeter Davis - The End Of The World
TTITLE14=Hank Williams - I´m So Lonesome I Could Cry
EXTD=
EXTT0=
EXTT1=
EXTT2=
EXTT3=
EXTT4=
EXTT5=
EXTT6=
EXTT7=
EXTT8=
EXTT9=
EXTT10=
EXTT11=
EXTT12=
EXTT13=
EXTT14=
PLAYORDER=
